<?xml version="1.0" encoding="utf-8"?>
<!-- Generator: Adobe Illustrator 24.3.0, SVG Export Plug-In . SVG Version: 6.00 Build 0)  -->
<svg version="1.1" id="Layer_1" xmlns="http://www.w3.org/2000/svg" xmlns:xlink="http://www.w3.org/1999/xlink" x="0px" y="0px"
	 viewBox="0 0 128 128" style="enable-background:new 0 0 128 128;" xml:space="preserve">
<style type="text/css">
	.st0{fill:none;stroke:#000000;stroke-width:5;stroke-linecap:round;stroke-miterlimit:10;}
	.st1{fill:#000000;}
</style>
<path class="st0" d="M48.1,22C61.3,63,93.6,24.9,48.1,22"/>
<path class="st0" d="M83.9,32.3C60.1,35.6,78,57,83.9,32.3"/>
<path class="st0" d="M46.3,76c-18.8,1.8-20.1,32.4,12.4,32.4c19.8,0,35.9-15.9,36.3-35.6c0-0.2,0-0.5,0-0.7
	c0-13.4-10.9-24.3-24.3-24.3C53.6,47.8,43.8,61.2,46.3,76"/>
<path class="st1" d="M69.6,26.8c0-2,0.8-3.8,2.1-5.1l0,0c1.3-1.3,3.1-2.1,5.1-2.1c1.1,0,2.1,0.9,2.1,2.1c0,1.1-0.9,2.1-2.1,2.1
	c-0.9,0-1.6,0.3-2.2,0.9s-0.9,1.3-0.9,2.2v20.9c0,1.1-0.9,2.1-2.1,2.1s-2.1-0.9-2.1-2.1L69.6,26.8L69.6,26.8z"/>
</svg>
